<svg xmlns="http://www.w3.org/2000/svg" width="269.096" height="233.576" viewBox="0 0 269.096 233.576">
  <g id="グループ_178" data-name="グループ 178" transform="translate(-1028.409 -654.854)">
    <g id="グループ_165" data-name="グループ 165">
      <path id="パス_173" data-name="パス 173" d="M1208.453,762.385a69.044,69.044,0,0,1,14.738,42.505c0,40.169-35.014,72.732-78.205,72.732s-78.206-32.563-78.206-72.732,35.014-72.731,78.206-72.731a81.748,81.748,0,0,1,47.14,14.693" fill="#f7bf14" stroke="#f7bf14" stroke-width="4"/>
    </g>
    <g id="グループ_166" data-name="グループ 166">
      <path id="パス_174" data-name="パス 174" d="M1221.684,804.89c0,39.395-34.339,71.331-76.7,71.331s-76.7-31.936-76.7-71.331,34.339-71.33,76.7-71.33a80.177,80.177,0,0,1,46.232,14.41A74.509,74.509,0,0,1,1207.23,763.2,67.715,67.715,0,0,1,1221.684,804.89Z" fill="#f7bf14"/>
    </g>
    <g id="グループ_167" data-name="グループ 167" opacity="0.7">
      <ellipse id="楕円形_10" data-name="楕円形 10" cx="76.948" cy="71.563" rx="76.948" ry="71.563" transform="translate(1068.037 733.328)" fill="#fff"/>
    </g>
    <ellipse id="楕円形_11" data-name="楕円形 11" cx="5.89" cy="2.492" rx="5.89" ry="2.492" transform="matrix(0.623, -0.782, 0.782, 0.623, 1250.442, 702.118)" fill="#9e9e9e"/>
    <ellipse id="楕円形_12" data-name="楕円形 12" cx="5.89" cy="2.492" rx="5.89" ry="2.492" transform="translate(1262.869 682.389) rotate(-17.352)" fill="#9e9e9e"/>
    <line id="線_147" data-name="線 147" x1="10.612" y2="14.464" transform="translate(1250.682 661.713)" fill="none" stroke="#7d3278" stroke-linecap="round" stroke-linejoin="round" stroke-width="0.571"/>
    <text id="sperms" transform="translate(1254.504 719.388)" fill="#7d3278" font-size="12.765" font-family="ComicSansMS, Comic Sans MS"><tspan x="0" y="0">sperms</tspan></text>
    <path id="パス_175" data-name="パス 175" d="M1226.6,731.9" fill="none" stroke="#1f9bb6" stroke-linecap="round" stroke-linejoin="round" stroke-width="2.854"/>
    <path id="パス_176" data-name="パス 176" d="M1215.467,708.438a105.117,105.117,0,1,0,20.754,30.925" fill="none" stroke="#1f9bb6" stroke-linecap="round" stroke-linejoin="round" stroke-width="2.854"/>
    <path id="パス_177" data-name="パス 177" d="M1237.785,741.77a15.138,15.138,0,1,1-9.922-14.22l-4.791,14.586,12.215-8.7A15.058,15.058,0,0,1,1237.785,741.77Z" fill="#1f9bb6" stroke="#fff" stroke-linecap="round" stroke-linejoin="round" stroke-width="1.142"/>
    <circle id="楕円形_13" data-name="楕円形 13" cx="3.653" cy="3.653" r="3.653" transform="translate(1062.65 732.278)" fill="#1d9db8"/>
    <circle id="楕円形_14" data-name="楕円形 14" cx="3.653" cy="3.653" r="3.653" transform="translate(1050.526 760.722)" fill="#1d9db8"/>
    <circle id="楕円形_15" data-name="楕円形 15" cx="3.653" cy="3.653" r="3.653" transform="translate(1055.189 785.436)" fill="#1d9db8"/>
    <circle id="楕円形_16" data-name="楕円形 16" cx="3.653" cy="3.653" r="3.653" transform="translate(1041.329 710.453)" fill="#1d9db8"/>
    <circle id="楕円形_17" data-name="楕円形 17" cx="3.653" cy="3.653" r="3.653" transform="translate(1065.123 683.175)" fill="#1d9db8"/>
    <circle id="楕円形_18" data-name="楕円形 18" cx="3.653" cy="3.653" r="3.653" transform="translate(1063.888 717.758)" fill="#1d9db8"/>
    <ellipse id="楕円形_19" data-name="楕円形 19" cx="2.492" cy="5.89" rx="2.492" ry="5.89" transform="matrix(0.32, -0.947, 0.947, 0.32, 1235.28, 701.393)" fill="#9e9e9e"/>
    <path id="パス_178" data-name="パス 178" d="M1207.185,690.083c2.809-1.495,5.025-1.674,6.784-1.191,4.349,1.194,4.3,5.95,9.011,7.684,3.407,1.254,4.888-.7,9.372.6a15.682,15.682,0,0,1,6.085,3.459" fill="none" stroke="#9e9e9e" stroke-linecap="round" stroke-linejoin="round" stroke-width="0.571"/>
    <path id="パス_179" data-name="パス 179" d="M1234.142,727.792c-.45-3.151.137-5.295,1.19-6.785,2.6-3.682,7.058-2.019,10.292-5.858,2.339-2.776,1-4.835,3.753-8.608A15.683,15.683,0,0,1,1254.7,702" fill="none" stroke="#9e9e9e" stroke-linecap="round" stroke-linejoin="round" stroke-width="0.571"/>
    <ellipse id="楕円形_20" data-name="楕円形 20" cx="5.89" cy="2.492" rx="5.89" ry="2.492" transform="translate(1166.312 729.132) rotate(-18.909)" fill="#9e9e9e"/>
    <path id="パス_180" data-name="パス 180" d="M1206.62,717.151c-1.315,2.9-2.963,4.391-4.652,5.081-4.174,1.7-7.037-2.095-11.827-.6-3.465,1.083-3.446,3.537-7.794,5.239a15.7,15.7,0,0,1-6.932.968" fill="none" stroke="#9e9e9e" stroke-linecap="round" stroke-linejoin="round" stroke-width="0.571"/>
    <ellipse id="楕円形_21" data-name="楕円形 21" cx="5.89" cy="2.492" rx="5.89" ry="2.492" transform="translate(1174.601 703.785) rotate(-26.357)" fill="#9e9e9e"/>
    <path id="パス_181" data-name="パス 181" d="M1148.953,720.125c.928-3.044,2.368-4.737,3.954-5.64,3.918-2.231,7.249,1.164,11.8-.941,3.3-1.523,2.959-3.953,7.049-6.205a15.7,15.7,0,0,1,6.749-1.858" fill="none" stroke="#9e9e9e" stroke-linecap="round" stroke-linejoin="round" stroke-width="0.571"/>
    <path id="パス_182" data-name="パス 182" d="M1234.979,694.513c1.393-2.861,3.081-4.308,4.788-4.952,4.219-1.59,6.978,2.285,11.807.919,3.493-.988,3.541-3.442,7.933-5.025a15.678,15.678,0,0,1,6.956-.779" fill="none" stroke="#9e9e9e" stroke-linecap="round" stroke-linejoin="round" stroke-width="0.571"/>
    <line id="線_148" data-name="線 148" x2="7.943" y2="19.014" transform="translate(1222.025 659.858)" fill="none" stroke="#7d3278" stroke-linecap="round" stroke-linejoin="round" stroke-width="0.571"/>
    <line id="線_149" data-name="線 149" x1="1.278" y2="18.483" transform="translate(1239.429 655.159)" fill="none" stroke="#7d3278" stroke-linecap="round" stroke-linejoin="round" stroke-width="0.571"/>
    <text id="Estradiol" transform="translate(1028.409 671.129)" fill="#1d9db8" font-size="12.765" font-family="ComicSansMS, Comic Sans MS"><tspan x="0" y="0">Estradiol</tspan></text>
    <text id="Liposome" transform="translate(1119.377 748.902)" fill="#f7931e" font-size="12.765" font-family="ComicSansMS, Comic Sans MS"><tspan x="0" y="0">Liposome</tspan></text>
    <text id="Cellulose_Capsule" data-name="Cellulose
Capsule" transform="translate(1108.28 692.262)" fill="#1f9bb6" font-size="12.765" font-family="ComicSansMS, Comic Sans MS"><tspan x="0" y="0">Cellulose</tspan><tspan x="0" y="15.318">Capsule</tspan></text>
    <text id="Cellulase" transform="translate(1175.883 723.461)" fill="#7d3278" font-size="12.765" font-family="ComicSansMS, Comic Sans MS"><tspan x="0" y="0">Cellulase</tspan></text>
    <text transform="translate(1267.511 740.135)" fill="rgba(0,0,0,0)" font-size="10" font-family="Arial"><tspan x="0" y="0"></tspan></text>
    <path id="パス_183" data-name="パス 183" d="M1182.387,858.735a6.747,6.747,0,1,1-4.423-6.34l-2.136,6.5,5.445-3.878A6.713,6.713,0,0,1,1182.387,858.735Z" fill="#1f9bb6" stroke="#fff" stroke-linecap="round" stroke-linejoin="round" stroke-width="0.871"/>
    <path id="パス_184" data-name="パス 184" d="M1122.13,783.487l-3.679-2.018v1.069h-4.829V791.7h2.066v-7.277h2.763v1.078Z" fill="none" stroke="#7d3278" stroke-linecap="round" stroke-linejoin="round" stroke-width="0.243" stroke-dasharray="0.486"/>
    <g id="グループ_168" data-name="グループ 168">
      <line id="線_150" data-name="線 150" x2="45.461" transform="translate(1108.688 791.634)" fill="none" stroke="#7d3278" stroke-linecap="round" stroke-linejoin="round" stroke-width="0.387"/>
      <line id="線_151" data-name="線 151" x2="45.461" transform="translate(1108.688 793.084)" fill="none" stroke="#7d3278" stroke-linecap="round" stroke-linejoin="round" stroke-width="0.387"/>
    </g>
    <rect id="長方形_29" data-name="長方形 29" width="12.52" height="6.442" rx="0.723" transform="translate(1125.726 789.172)" fill="#f7bf14"/>
    <path id="パス_185" data-name="パス 185" d="M1101.176,768.463v-6.929h-2.066v6.929h-2.917v2.066h7.9v-2.066Z" fill="none" stroke="#b5417b" stroke-linecap="round" stroke-linejoin="round" stroke-width="0.243" stroke-dasharray="0.486"/>
    <path id="パス_186" data-name="パス 186" d="M1102.513,828.753v-6.929h-2.066v6.929h-2.917v2.066h7.9v-2.066Z" fill="#1d9db8"/>
    <path id="パス_187" data-name="パス 187" d="M1162.735,801.184v-21.3h-31.619v7.9h1.856v-6.045h27.907v19.44h-2.62v1.856h7.1v-1.856Z" fill="none" stroke="#7d3278" stroke-linecap="round" stroke-linejoin="round" stroke-width="0.243" stroke-dasharray="0.486"/>
    <path id="パス_188" data-name="パス 188" d="M1167.645,806.465l-3.679-2.256v1.2h-4.829V815.65h2.066v-8.134h2.763v1.206Z" fill="#7d3278"/>
    <g id="グループ_169" data-name="グループ 169">
      <line id="線_152" data-name="線 152" x2="41.453" transform="translate(1151.616 815.608)" fill="none" stroke="#7d3278" stroke-linecap="round" stroke-linejoin="round" stroke-width="0.365"/>
      <line id="線_153" data-name="線 153" x2="41.453" transform="translate(1151.616 817.57)" fill="none" stroke="#7d3278" stroke-linecap="round" stroke-linejoin="round" stroke-width="0.365"/>
    </g>
    <path id="パス_189" data-name="パス 189" d="M1172.183,819.515h15.742c.568,0,1.028-.322,1.028-.72v-4.978c0-.4-.46-.72-1.028-.72h-15.742c-.567,0-1.027.323-1.027.72v4.978C1171.156,819.193,1171.616,819.515,1172.183,819.515Z" fill="#f7bf14"/>
    <text id="lipase" transform="translate(1175.149 817.596)" fill="#7d3278" font-size="3.734" font-family="ComicSansMS, Comic Sans MS"><tspan x="0" y="0">lipase</tspan></text>
    <text id="Plux_tet" data-name="Plux/tet" transform="translate(1153.924 821.823)" fill="#7d3278" font-size="3.343" font-family="ComicSansMS, Comic Sans MS"><tspan x="0" y="0">Plux/tet</tspan></text>
    <text id="tetR" transform="translate(1128.901 793.327)" fill="#7d3278" font-size="3.343" font-family="ComicSansMS, Comic Sans MS"><tspan x="0" y="0">tetR</tspan></text>
    <path id="パス_190" data-name="パス 190" d="M1160.676,827.051l-2.492,5.361h1.331v7.037h.006v25.463h-27.106v-7.838h-1.9v9.783h31.327v-1.945h-.007V839.45h.017v-7.037h1.32Z" fill="#7d3278"/>
    <path id="パス_191" data-name="パス 191" d="M1123.53,843.8l-3.679-2.018v1.069h-4.829v9.166h2.066V844.74h2.763v1.078Z" fill="#7d3278"/>
    <g id="グループ_170" data-name="グループ 170">
      <line id="線_154" data-name="線 154" x2="45.461" transform="translate(1108.688 851.947)" fill="none" stroke="#7d3278" stroke-linecap="round" stroke-linejoin="round" stroke-width="0.387"/>
      <line id="線_155" data-name="線 155" x2="45.461" transform="translate(1108.688 853.397)" fill="none" stroke="#7d3278" stroke-linecap="round" stroke-linejoin="round" stroke-width="0.387"/>
    </g>
    <rect id="長方形_30" data-name="長方形 30" width="12.52" height="6.442" rx="0.723" transform="translate(1125.656 849.451)" fill="#f7bf14"/>
    <text id="luxR" transform="translate(1128.552 853.605)" fill="#7d3278" font-size="3.343" font-family="ComicSansMS, Comic Sans MS"><tspan x="0" y="0">luxR</tspan></text>
    <text id="Progesterone" transform="translate(1091.819 759.09)" fill="#b5417b" font-size="7.927" font-family="ComicSansMS, Comic Sans MS"><tspan x="0" y="0">Progesterone</tspan></text>
    <text id="Estradiol-2" data-name="Estradiol" transform="translate(1089.196 819.601)" fill="#1d9db8" font-size="7.927" font-family="ComicSansMS, Comic Sans MS"><tspan x="0" y="0">Estradiol</tspan></text>
    <path id="パス_192" data-name="パス 192" d="M1185.887,800.868l-2.991,5.8h1.584v7.617h2.8v-7.617h1.6Z" fill="#f7bf14"/>
    <path id="パス_193" data-name="パス 193" d="M1208.593,786.123a14.516,14.516,0,1,1-9.514-13.636l-4.594,13.987,11.713-8.341A14.442,14.442,0,0,1,1208.593,786.123Z" fill="#f7bf14"/>
    <path id="パス_194" data-name="パス 194" d="M1117.494,777.725v-4.939h-33.067v2.447h31.211v2.491h-2.62v1.856h7.1v-1.856Z" fill="#7d3278"/>
    <path id="パス_195" data-name="パス 195" d="M1117.494,837.78v-4.939h-33.067v2.447h31.211v2.491h-2.62v1.856h7.1V837.78Z" fill="none" stroke="#7d3278" stroke-linecap="round" stroke-linejoin="round" stroke-width="0.243" stroke-dasharray="0.486"/>
    <g id="グループ_171" data-name="グループ 171">
      <path id="パス_196" data-name="パス 196" d="M1089.228,770.061a2.526,2.526,0,0,1-4.5,0c-1.846,0-3.343,2.367-3.343,5.288s1.5,5.287,3.343,5.287a2.526,2.526,0,0,1,4.5,0c1.846,0,3.343-2.367,3.343-5.287S1091.074,770.061,1089.228,770.061Z" fill="#fff" stroke="#b5417b" stroke-linecap="round" stroke-linejoin="round" stroke-width="0.365"/>
      <text id="SRTF1" transform="translate(1081.868 776.282)" fill="#b5417b" font-size="3.343" font-family="ComicSansMS, Comic Sans MS"><tspan x="0" y="0">SRTF1</tspan></text>
    </g>
    <g id="グループ_172" data-name="グループ 172">
      <path id="パス_197" data-name="パス 197" d="M1090.107,829.859a2.526,2.526,0,0,1-4.5,0c-1.846,0-3.343,2.367-3.343,5.287s1.5,5.288,3.343,5.288a2.526,2.526,0,0,1,4.5,0c1.846,0,3.343-2.367,3.343-5.288S1091.953,829.859,1090.107,829.859Z" fill="#b5417b"/>
      <text id="EdcR" transform="translate(1083.899 836.079)" fill="#fff" font-size="3.343" font-family="ComicSansMS, Comic Sans MS"><tspan x="0" y="0">EdcR</tspan></text>
    </g>
    <g id="グループ_175" data-name="グループ 175">
      <g id="グループ_174" data-name="グループ 174">
        <g id="グループ_173" data-name="グループ 173">
          <ellipse id="楕円形_22" data-name="楕円形 22" cx="20.471" cy="10.957" rx="20.471" ry="10.957" transform="translate(1167.586 827.739)" fill="none" stroke="#7d3278" stroke-width="1.058"/>
          <text id="Pcon-cellulase" transform="translate(1169.374 840.741)" fill="#7d3278" font-size="5.596" font-family="ComicSansMS, Comic Sans MS"><tspan x="0" y="0">Pcon-cellulase</tspan></text>
        </g>
      </g>
      <rect id="長方形_31" data-name="長方形 31" width="13.356" height="4.452" rx="1.929" transform="translate(1180.544 847.484)" fill="#1f9bb6" stroke="#fff" stroke-linecap="round" stroke-linejoin="round" stroke-width="0.933"/>
    </g>
    <path id="パス_198" data-name="パス 198" d="M1215.494,821.9a6.747,6.747,0,1,1-4.423-6.34l-2.136,6.5,5.446-3.877A6.718,6.718,0,0,1,1215.494,821.9Z" fill="#1f9bb6" stroke="#fff" stroke-linecap="round" stroke-linejoin="round" stroke-width="0.871"/>
    <path id="パス_199" data-name="パス 199" d="M1169.246,765.543a6.747,6.747,0,1,1-4.423-6.34l-2.135,6.5,5.445-3.878A6.714,6.714,0,0,1,1169.246,765.543Z" fill="#1f9bb6" stroke="#fff" stroke-linecap="round" stroke-linejoin="round" stroke-width="0.871"/>
    <path id="パス_200" data-name="パス 200" d="M1200.246,756.543a6.747,6.747,0,1,1-4.423-6.34l-2.135,6.5,5.445-3.878A6.714,6.714,0,0,1,1200.246,756.543Z" fill="#f7bf14"/>
    <circle id="楕円形_23" data-name="楕円形 23" cx="3.653" cy="3.653" r="3.653" transform="translate(1080.752 795.402)" fill="#1d9db8"/>
    <circle id="楕円形_24" data-name="楕円形 24" cx="3.653" cy="3.653" r="3.653" transform="translate(1074.307 807.818)" fill="#1d9db8"/>
    <g id="グループ_176" data-name="グループ 176" opacity="0.7">
      <path id="パス_201" data-name="パス 201" d="M1208.168,764.033a67.844,67.844,0,0,1,13.766,40.857c0,39.523-34.451,71.563-76.948,71.563s-76.949-32.04-76.949-71.563,34.451-71.562,76.949-71.562a80.444,80.444,0,0,1,46.294,14.4" fill="none" stroke="#f7931e" stroke-width="1"/>
    </g>
    <g id="グループ_177" data-name="グループ 177">
      <path id="パス_202" data-name="パス 202" d="M1209.727,761.532a70.429,70.429,0,0,1,15.033,43.358c0,40.975-35.716,74.192-79.774,74.192s-79.775-33.217-79.775-74.192,35.716-74.191,79.775-74.191a83.4,83.4,0,0,1,48.087,14.988" fill="none" stroke="#f7931e" stroke-width="1"/>
    </g>
  </g>
</svg>
